<svg xmlns="http://www.w3.org/2000/svg" xml:space="preserve" viewBox="0 0 128 128" version="1.1" y="0px" x="0px"><rect height="128" width="128" y="0" x="0" fill="#4c7e3a"/><g fill="#fff" transform="matrix(1.3151 0 0 1.3151 -20.166 -20.166)"><path d="m91.344 43.844-12.188-12.188c-1.445-1.445-4.336-2.656-6.406-2.656h-35c-2.07 0-3.75 1.68-3.75 3.75v62.5c0 2.0703 1.6797 3.75 3.75 3.75h52.5c2.07 0 3.75-1.68 3.75-3.75v-45c0-2.0703-1.2109-4.9609-2.6562-6.4062zm-17.344-9.532c.66406.23438 1.3281.58594 1.6016.85938l12.226 12.227c.274.274.625.938.86 1.602h-14.688zm15 59.688h-50v-60h30v16.25c0 2.07 1.68 3.75 3.75 3.75h16.25z"/></g><g fill="#fff" transform="matrix(.14396 0 0 .14396 96.296 -.76103)"><path stroke-width="4.3877" fill="#fff" d="m163.54 118.43h-70.204v-71.079c0-12.285-9.6529-21.061-21.938-21.061h-.87753c-12.286 0-21.061 8.3366-21.061 21.061v71.08h-72.397c-12.285 0-24.132 9.6529-24.132 21.938v.87753c0 12.285 11.847 20.622 24.132 20.622h68.009v71.08c0 12.285 11.408 21.061 24.132 21.061h.87753c12.286 0 23.255-8.3366 23.255-21.061v-71.08h70.203c12.285 0 21.938-9.6529 21.938-21.938v-.87753c0-12.285-9.6529-20.622-21.938-20.622z"/></g><circle class="st0" cy="77.288" cx="64.271" r="24.093" fill="#76b82a"/><path d="m82.031 72.282v-5.2066c0-2.3905-.78851-4.2429-2.353-5.5571s-3.7673-1.965-6.5959-1.965c-2.8036 0-4.9814.62580-6.5458 1.8774-1.3642 1.1014-2.1402 2.5783-2.3029 4.4432-.21277-1.8148-.97624-3.2792-2.3155-4.3806-1.577-1.3017-3.7798-1.9525-6.5709-1.9525-3.1791 0-5.457.72592-6.8087 2.1778-1.3517 1.4393-2.0276 3.955-2.0276 7.5471v16.358c0 3.542.68838 6.0452 2.0526 7.5096s3.6547 2.2028 6.8337 2.2028c2.8161 0 5.0064-.67586 6.5584-2.0401 1.3392-1.164 2.0902-2.7535 2.2779-4.731.18774 1.965.95121 3.542 2.3029 4.7185 1.577 1.3642 3.7673 2.0526 6.5834 2.0526 2.8787 0 5.0815-.67586 6.6084-2.0401 1.5269-1.3517 2.2904-3.3042 2.2904-5.845v-3.905c0-1.7147-.30038-3.1165-.88863-4.1803-.58825-1.0764-2.0651-2.5658-4.4432-4.4682-.31290-.25032-.73844-.58825-1.3017-1.0138-2.4156-1.8524-3.6171-3.5545-3.6171-5.094v-1.8273c0-.75096.10013-1.2891.31290-1.602s.56322-.47561 1.0388-.47561c.48812 0 .82605.16271 1.0388.47561.21277.32542.31290.85109.31290 1.602v5.3193zm-7.5346 12.266v3.0664c0 .75096-.10013 1.2891-.31290 1.602-.21277.32541-.56322.47561-1.0388.47561-.48812 0-.82605-.16271-1.0388-.47561-.21277-.31290-.31290-.85109-.31290-1.602v-6.3831h-15.007v6.3831c0 .75096-.11264 1.2891-.3129 1.602-.21277.32541-.56322.47561-1.0388.47561-.48812 0-.83857-.16271-1.0388-.47561-.21277-.31290-.31290-.85109-.31290-1.602v-20.664c0-.75096.10013-1.2891.31290-1.602s.56322-.47561 1.0388-.47561c.48812 0 .82605.16271 1.0388.47561.21277.32542.3129.85108.3129 1.602v5.3193h7.5221v-1.3642c.41303 2.5032 2.1152 4.9814 5.1065 7.472l.06258.06258c.31290.25032.73844.58825 1.2766 1.0138 2.4907 2.0151 3.7423 3.7047 3.7423 5.094z" class="st1" fill="#fff"/></svg>
